<svg width="855" height="193" viewBox="0 0 855 193" fill="none" xmlns="http://www.w3.org/2000/svg">
<path opacity="0.45" d="M23.7861 176.424H30.8132V177.93H23.7861V189H22.2803V177.93H2.59332V177.093L21.9735 148.399H23.7861V176.424ZM4.93568 176.424H22.2803V150.212L19.9379 154.06L4.93568 176.424ZM63.9408 172.436C63.9408 174.425 63.727 176.424 63.2994 178.432C62.8719 180.439 62.184 182.28 61.2359 183.953C60.2878 185.57 59.0237 186.909 57.4435 187.968C55.8634 189.028 53.9021 189.558 51.5598 189.558C50.0168 189.558 48.6318 189.325 47.4049 188.861C46.1779 188.377 45.1183 187.708 44.2259 186.853C42.3483 185.087 41.0191 182.902 40.2384 180.3C39.4762 177.697 39.0951 175.076 39.0951 172.436V164.963C39.0951 162.992 39.3181 160.966 39.7643 158.884C40.2105 156.783 40.9262 154.915 41.9115 153.279C42.8967 151.643 44.1702 150.323 45.7317 149.319C47.2933 148.315 49.2174 147.814 51.504 147.814C53.0656 147.814 54.4784 148.074 55.7425 148.594C57.0067 149.096 58.0756 149.756 58.9493 150.574C60.7154 152.229 61.9795 154.385 62.7417 157.044C63.5039 159.702 63.9036 162.342 63.9408 164.963V172.436ZM41.2701 178.292L61.4869 157.908C61.1523 156.737 60.7061 155.631 60.1484 154.59C59.5907 153.549 58.9122 152.638 58.1128 151.857C57.2948 151.076 56.3374 150.463 55.2406 150.016C54.1624 149.552 52.9168 149.319 51.504 149.319C49.4033 149.319 47.693 149.766 46.3731 150.658C45.0718 151.55 43.9471 152.768 42.999 154.311C42.1624 155.668 41.549 157.341 41.1586 159.33C40.7868 161.319 40.6009 163.197 40.6009 164.963V172.38C40.6009 173.347 40.6473 174.332 40.7403 175.336C40.8518 176.322 41.0284 177.307 41.2701 178.292ZM62.435 172.38V164.963C62.4164 164.071 62.3606 163.169 62.2677 162.258C62.1933 161.329 62.0632 160.408 61.8773 159.497L41.6884 179.854C42.0416 180.969 42.4971 182.029 43.0548 183.033C43.6125 184.018 44.291 184.882 45.0904 185.626C45.8898 186.369 46.8193 186.964 47.8789 187.411C48.9571 187.838 50.1841 188.052 51.5598 188.052C53.6604 188.052 55.4172 187.559 56.8301 186.574C58.2615 185.589 59.3676 184.325 60.1484 182.782C60.985 181.276 61.5705 179.603 61.9052 177.762C62.2398 175.903 62.4164 174.109 62.435 172.38ZM92.3837 176.424H99.4108V177.93H92.3837V189H90.8779V177.93H71.1909V177.093L90.5712 148.399H92.3837V176.424ZM73.5333 176.424H90.8779V150.212L88.5355 154.06L73.5333 176.424Z" fill="white"/>
<path opacity="0.45" d="M142.786 176.424H149.813V177.93H142.786V189H141.28V177.93H121.593V177.093L140.974 148.399H142.786V176.424ZM123.936 176.424H141.28V150.212L138.938 154.06L123.936 176.424ZM182.941 172.436C182.941 174.425 182.727 176.424 182.299 178.432C181.872 180.439 181.184 182.28 180.236 183.953C179.288 185.57 178.024 186.909 176.444 187.968C174.863 189.028 172.902 189.558 170.56 189.558C169.017 189.558 167.632 189.325 166.405 188.861C165.178 188.377 164.118 187.708 163.226 186.853C161.348 185.087 160.019 182.902 159.238 180.3C158.476 177.697 158.095 175.076 158.095 172.436V164.963C158.095 162.992 158.318 160.966 158.764 158.884C159.21 156.783 159.926 154.915 160.911 153.279C161.897 151.643 163.17 150.323 164.732 149.319C166.293 148.315 168.217 147.814 170.504 147.814C172.066 147.814 173.478 148.074 174.743 148.594C176.007 149.096 177.076 149.756 177.949 150.574C179.715 152.229 180.98 154.385 181.742 157.044C182.504 159.702 182.904 162.342 182.941 164.963V172.436ZM160.27 178.292L180.487 157.908C180.152 156.737 179.706 155.631 179.148 154.59C178.591 153.549 177.912 152.638 177.113 151.857C176.295 151.076 175.337 150.463 174.241 150.016C173.162 149.552 171.917 149.319 170.504 149.319C168.403 149.319 166.693 149.766 165.373 150.658C164.072 151.55 162.947 152.768 161.999 154.311C161.162 155.668 160.549 157.341 160.159 159.33C159.787 161.319 159.601 163.197 159.601 164.963V172.38C159.601 173.347 159.647 174.332 159.74 175.336C159.852 176.322 160.028 177.307 160.27 178.292ZM181.435 172.38V164.963C181.416 164.071 181.361 163.169 181.268 162.258C181.193 161.329 181.063 160.408 180.877 159.497L160.688 179.854C161.042 180.969 161.497 182.029 162.055 183.033C162.612 184.018 163.291 184.882 164.09 185.626C164.89 186.369 165.819 186.964 166.879 187.411C167.957 187.838 169.184 188.052 170.56 188.052C172.66 188.052 174.417 187.559 175.83 186.574C177.261 185.589 178.368 184.325 179.148 182.782C179.985 181.276 180.571 179.603 180.905 177.762C181.24 175.903 181.416 174.109 181.435 172.38ZM211.384 176.424H218.411V177.93H211.384V189H209.878V177.93H190.191V177.093L209.571 148.399H211.384V176.424ZM192.533 176.424H209.878V150.212L207.536 154.06L192.533 176.424Z" fill="white"/>
<path opacity="0.45" d="M248.728 148.118L255.276 150.668L254.73 152.071L248.182 149.521L244.164 159.837L242.761 159.29L246.779 148.975L228.434 141.83L228.738 141.051L257.21 121.346L258.899 122.004L248.728 148.118ZM231.163 141.277L247.325 147.572L256.838 123.146L253.258 125.882L231.163 141.277ZM287.593 158.975C286.871 160.828 285.946 162.613 284.819 164.328C283.692 166.044 282.384 167.509 280.893 168.724C279.423 169.887 277.759 170.676 275.902 171.09C274.045 171.504 272.025 171.286 269.842 170.436C268.405 169.876 267.198 169.157 266.224 168.278C265.256 167.383 264.511 166.374 263.99 165.254C262.881 162.927 262.436 160.409 262.652 157.7C262.887 154.999 263.483 152.418 264.441 149.958L267.153 142.994C267.868 141.158 268.811 139.351 269.983 137.573C271.161 135.777 272.506 134.296 274.017 133.129C275.529 131.962 277.195 131.194 279.014 130.826C280.834 130.457 282.809 130.687 284.939 131.517C286.395 132.084 287.617 132.839 288.606 133.783C289.601 134.709 290.358 135.712 290.875 136.791C291.921 138.974 292.316 141.442 292.061 144.196C291.807 146.95 291.221 149.555 290.305 152.011L287.593 158.975ZM264.342 156.204L290.578 144.546C290.692 143.333 290.677 142.141 290.535 140.968C290.394 139.796 290.092 138.701 289.63 137.683C289.151 136.659 288.482 135.74 287.622 134.926C286.786 134.102 285.709 133.433 284.393 132.92C282.435 132.158 280.68 131.953 279.126 132.306C277.59 132.665 276.1 133.391 274.656 134.485C273.384 135.446 272.206 136.782 271.12 138.494C270.052 140.213 269.197 141.895 268.556 143.541L265.864 150.452C265.513 151.353 265.199 152.288 264.921 153.257C264.668 154.216 264.475 155.198 264.342 156.204ZM286.21 158.376L288.902 151.464C289.208 150.626 289.483 149.766 289.727 148.883C289.995 147.99 290.208 147.085 290.365 146.169L264.166 157.811C264.09 158.978 264.13 160.131 264.285 161.269C264.447 162.389 264.766 163.441 265.241 164.424C265.716 165.407 266.366 166.299 267.192 167.099C268.041 167.889 269.107 168.533 270.389 169.033C272.346 169.795 274.162 169.973 275.836 169.568C277.528 169.169 279.017 168.393 280.305 167.238C281.631 166.139 282.783 164.792 283.763 163.199C284.75 161.588 285.565 159.98 286.21 158.376ZM312.65 173.012L319.198 175.562L318.651 176.966L312.103 174.415L308.086 184.731L306.682 184.185L310.7 173.869L292.355 166.725L292.659 165.945L321.131 146.24L322.82 146.898L312.65 173.012ZM295.084 166.171L311.246 172.466L320.759 148.041L317.18 150.776L295.084 166.171Z" fill="white"/>
<path opacity="0.45" d="M356.786 176.424H363.813V177.93H356.786V189H355.28V177.93H335.593V177.093L354.974 148.399H356.786V176.424ZM337.936 176.424H355.28V150.212L352.938 154.06L337.936 176.424ZM396.941 172.436C396.941 174.425 396.727 176.424 396.299 178.432C395.872 180.439 395.184 182.28 394.236 183.953C393.288 185.57 392.024 186.909 390.444 187.968C388.863 189.028 386.902 189.558 384.56 189.558C383.017 189.558 381.632 189.325 380.405 188.861C379.178 188.377 378.118 187.708 377.226 186.853C375.348 185.087 374.019 182.902 373.238 180.3C372.476 177.697 372.095 175.076 372.095 172.436V164.963C372.095 162.992 372.318 160.966 372.764 158.884C373.21 156.783 373.926 154.915 374.911 153.279C375.897 151.643 377.17 150.323 378.732 149.319C380.293 148.315 382.217 147.814 384.504 147.814C386.066 147.814 387.478 148.074 388.743 148.594C390.007 149.096 391.076 149.756 391.949 150.574C393.715 152.229 394.98 154.385 395.742 157.044C396.504 159.702 396.904 162.342 396.941 164.963V172.436ZM374.27 178.292L394.487 157.908C394.152 156.737 393.706 155.631 393.148 154.59C392.591 153.549 391.912 152.638 391.113 151.857C390.295 151.076 389.337 150.463 388.241 150.016C387.162 149.552 385.917 149.319 384.504 149.319C382.403 149.319 380.693 149.766 379.373 150.658C378.072 151.55 376.947 152.768 375.999 154.311C375.162 155.668 374.549 157.341 374.159 159.33C373.787 161.319 373.601 163.197 373.601 164.963V172.38C373.601 173.347 373.647 174.332 373.74 175.336C373.852 176.322 374.028 177.307 374.27 178.292ZM395.435 172.38V164.963C395.416 164.071 395.361 163.169 395.268 162.258C395.193 161.329 395.063 160.408 394.877 159.497L374.688 179.854C375.042 180.969 375.497 182.029 376.055 183.033C376.612 184.018 377.291 184.882 378.09 185.626C378.89 186.369 379.819 186.964 380.879 187.411C381.957 187.838 383.184 188.052 384.56 188.052C386.66 188.052 388.417 187.559 389.83 186.574C391.261 185.589 392.368 184.325 393.148 182.782C393.985 181.276 394.571 179.603 394.905 177.762C395.24 175.903 395.416 174.109 395.435 172.38ZM425.384 176.424H432.411V177.93H425.384V189H423.878V177.93H404.191V177.093L423.571 148.399H425.384V176.424ZM406.533 176.424H423.878V150.212L421.536 154.06L406.533 176.424Z" fill="white"/>
<path opacity="0.45" d="M486.786 179.424H493.813V180.93H486.786V192H485.28V180.93H465.593V180.093L484.974 151.399H486.786V179.424ZM467.936 179.424H485.28V153.212L482.938 157.06L467.936 179.424ZM526.941 175.436C526.941 177.425 526.727 179.424 526.299 181.432C525.872 183.439 525.184 185.28 524.236 186.953C523.288 188.57 522.024 189.909 520.444 190.968C518.863 192.028 516.902 192.558 514.56 192.558C513.017 192.558 511.632 192.325 510.405 191.861C509.178 191.377 508.118 190.708 507.226 189.853C505.348 188.087 504.019 185.902 503.238 183.3C502.476 180.697 502.095 178.076 502.095 175.436V167.963C502.095 165.992 502.318 163.966 502.764 161.884C503.21 159.783 503.926 157.915 504.911 156.279C505.897 154.643 507.17 153.323 508.732 152.319C510.293 151.315 512.217 150.814 514.504 150.814C516.066 150.814 517.478 151.074 518.743 151.594C520.007 152.096 521.076 152.756 521.949 153.574C523.715 155.229 524.98 157.385 525.742 160.044C526.504 162.702 526.904 165.342 526.941 167.963V175.436ZM504.27 181.292L524.487 160.908C524.152 159.737 523.706 158.631 523.148 157.59C522.591 156.549 521.912 155.638 521.113 154.857C520.295 154.076 519.337 153.463 518.241 153.016C517.162 152.552 515.917 152.319 514.504 152.319C512.403 152.319 510.693 152.766 509.373 153.658C508.072 154.55 506.947 155.768 505.999 157.311C505.162 158.668 504.549 160.341 504.159 162.33C503.787 164.319 503.601 166.197 503.601 167.963V175.38C503.601 176.347 503.647 177.332 503.74 178.336C503.852 179.322 504.028 180.307 504.27 181.292ZM525.435 175.38V167.963C525.416 167.071 525.361 166.169 525.268 165.258C525.193 164.329 525.063 163.408 524.877 162.497L504.688 182.854C505.042 183.969 505.497 185.029 506.055 186.033C506.612 187.018 507.291 187.882 508.09 188.626C508.89 189.369 509.819 189.964 510.879 190.411C511.957 190.838 513.184 191.052 514.56 191.052C516.66 191.052 518.417 190.559 519.83 189.574C521.261 188.589 522.368 187.325 523.148 185.782C523.985 184.276 524.571 182.603 524.905 180.762C525.24 178.903 525.416 177.109 525.435 175.38ZM555.384 179.424H562.411V180.93H555.384V192H553.878V180.93H534.191V180.093L553.571 151.399H555.384V179.424ZM536.533 179.424H553.878V153.212L551.536 157.06L536.533 179.424Z" fill="white"/>
<path opacity="0.45" d="M653.786 179.424H660.813V180.93H653.786V192H652.28V180.93H632.593V180.093L651.974 151.399H653.786V179.424ZM634.936 179.424H652.28V153.212L649.938 157.06L634.936 179.424ZM693.941 175.436C693.941 177.425 693.727 179.424 693.299 181.432C692.872 183.439 692.184 185.28 691.236 186.953C690.288 188.57 689.024 189.909 687.444 190.968C685.863 192.028 683.902 192.558 681.56 192.558C680.017 192.558 678.632 192.325 677.405 191.861C676.178 191.377 675.118 190.708 674.226 189.853C672.348 188.087 671.019 185.902 670.238 183.3C669.476 180.697 669.095 178.076 669.095 175.436V167.963C669.095 165.992 669.318 163.966 669.764 161.884C670.21 159.783 670.926 157.915 671.911 156.279C672.897 154.643 674.17 153.323 675.732 152.319C677.293 151.315 679.217 150.814 681.504 150.814C683.066 150.814 684.478 151.074 685.743 151.594C687.007 152.096 688.076 152.756 688.949 153.574C690.715 155.229 691.98 157.385 692.742 160.044C693.504 162.702 693.904 165.342 693.941 167.963V175.436ZM671.27 181.292L691.487 160.908C691.152 159.737 690.706 158.631 690.148 157.59C689.591 156.549 688.912 155.638 688.113 154.857C687.295 154.076 686.337 153.463 685.241 153.016C684.162 152.552 682.917 152.319 681.504 152.319C679.403 152.319 677.693 152.766 676.373 153.658C675.072 154.55 673.947 155.768 672.999 157.311C672.162 158.668 671.549 160.341 671.159 162.33C670.787 164.319 670.601 166.197 670.601 167.963V175.38C670.601 176.347 670.647 177.332 670.74 178.336C670.852 179.322 671.028 180.307 671.27 181.292ZM692.435 175.38V167.963C692.416 167.071 692.361 166.169 692.268 165.258C692.193 164.329 692.063 163.408 691.877 162.497L671.688 182.854C672.042 183.969 672.497 185.029 673.055 186.033C673.612 187.018 674.291 187.882 675.09 188.626C675.89 189.369 676.819 189.964 677.879 190.411C678.957 190.838 680.184 191.052 681.56 191.052C683.66 191.052 685.417 190.559 686.83 189.574C688.261 188.589 689.368 187.325 690.148 185.782C690.985 184.276 691.571 182.603 691.905 180.762C692.24 178.903 692.416 177.109 692.435 175.38ZM722.384 179.424H729.411V180.93H722.384V192H720.878V180.93H701.191V180.093L720.571 151.399H722.384V179.424ZM703.533 179.424H720.878V153.212L718.536 157.06L703.533 179.424Z" fill="white"/>
<path opacity="0.45" d="M775.786 179.424H782.813V180.93H775.786V192H774.28V180.93H754.593V180.093L773.974 151.399H775.786V179.424ZM756.936 179.424H774.28V153.212L771.938 157.06L756.936 179.424ZM815.941 175.436C815.941 177.425 815.727 179.424 815.299 181.432C814.872 183.439 814.184 185.28 813.236 186.953C812.288 188.57 811.024 189.909 809.444 190.968C807.863 192.028 805.902 192.558 803.56 192.558C802.017 192.558 800.632 192.325 799.405 191.861C798.178 191.377 797.118 190.708 796.226 189.853C794.348 188.087 793.019 185.902 792.238 183.3C791.476 180.697 791.095 178.076 791.095 175.436V167.963C791.095 165.992 791.318 163.966 791.764 161.884C792.21 159.783 792.926 157.915 793.911 156.279C794.897 154.643 796.17 153.323 797.732 152.319C799.293 151.315 801.217 150.814 803.504 150.814C805.066 150.814 806.478 151.074 807.743 151.594C809.007 152.096 810.076 152.756 810.949 153.574C812.715 155.229 813.98 157.385 814.742 160.044C815.504 162.702 815.904 165.342 815.941 167.963V175.436ZM793.27 181.292L813.487 160.908C813.152 159.737 812.706 158.631 812.148 157.59C811.591 156.549 810.912 155.638 810.113 154.857C809.295 154.076 808.337 153.463 807.241 153.016C806.162 152.552 804.917 152.319 803.504 152.319C801.403 152.319 799.693 152.766 798.373 153.658C797.072 154.55 795.947 155.768 794.999 157.311C794.162 158.668 793.549 160.341 793.159 162.33C792.787 164.319 792.601 166.197 792.601 167.963V175.38C792.601 176.347 792.647 177.332 792.74 178.336C792.852 179.322 793.028 180.307 793.27 181.292ZM814.435 175.38V167.963C814.416 167.071 814.361 166.169 814.268 165.258C814.193 164.329 814.063 163.408 813.877 162.497L793.688 182.854C794.042 183.969 794.497 185.029 795.055 186.033C795.612 187.018 796.291 187.882 797.09 188.626C797.89 189.369 798.819 189.964 799.879 190.411C800.957 190.838 802.184 191.052 803.56 191.052C805.66 191.052 807.417 190.559 808.83 189.574C810.261 188.589 811.368 187.325 812.148 185.782C812.985 184.276 813.571 182.603 813.905 180.762C814.24 178.903 814.416 177.109 814.435 175.38ZM844.384 179.424H851.411V180.93H844.384V192H842.878V180.93H823.191V180.093L842.571 151.399H844.384V179.424ZM825.533 179.424H842.878V153.212L840.536 157.06L825.533 179.424Z" fill="white"/>
<path opacity="0.45" d="M558.779 134.825L564.643 138.697L563.814 139.953L557.949 136.082L551.85 145.321L550.594 144.492L556.692 135.253L540.262 124.407L540.723 123.709L572.705 110.438L574.217 111.437L558.779 134.825ZM543.047 124.441L557.522 133.996L571.962 112.12L567.887 114.041L543.047 124.441ZM594.487 153.619C593.392 155.279 592.112 156.829 590.649 158.269C589.186 159.709 587.598 160.866 585.886 161.74C584.203 162.567 582.411 162.988 580.508 163.002C578.606 163.016 576.677 162.377 574.722 161.087C573.435 160.237 572.407 159.28 571.639 158.216C570.881 157.137 570.365 155.995 570.092 154.789C569.498 152.281 569.592 149.726 570.374 147.124C571.172 144.532 572.298 142.134 573.752 139.931L577.869 133.694C578.954 132.05 580.257 130.481 581.776 128.99C583.306 127.482 584.932 126.317 586.656 125.495C588.379 124.672 590.169 124.272 592.026 124.295C593.882 124.317 595.764 124.958 597.673 126.218C598.976 127.078 600.011 128.074 600.78 129.204C601.558 130.32 602.087 131.459 602.365 132.623C602.928 134.977 602.795 137.473 601.966 140.112C601.138 142.75 600.017 145.174 598.604 147.382L594.487 153.619ZM572.341 146.017L600.443 140.142C600.809 138.98 601.046 137.811 601.154 136.635C601.262 135.459 601.198 134.325 600.961 133.233C600.708 132.131 600.247 131.091 599.577 130.115C598.934 129.133 598.022 128.253 596.843 127.474C595.09 126.317 593.417 125.747 591.823 125.765C590.246 125.793 588.636 126.189 586.995 126.955C585.549 127.627 584.116 128.685 582.694 130.13C581.288 131.585 580.098 133.05 579.125 134.524L575.039 140.714C574.507 141.521 574.003 142.369 573.527 143.258C573.078 144.142 572.682 145.061 572.341 146.017ZM593.261 152.742L597.348 146.552C597.824 145.797 598.274 145.014 598.698 144.202C599.148 143.386 599.546 142.546 599.893 141.683L571.83 147.55C571.51 148.676 571.307 149.811 571.219 150.956C571.142 152.086 571.232 153.181 571.489 154.242C571.747 155.303 572.195 156.311 572.833 157.267C573.498 158.218 574.404 159.073 575.552 159.83C577.305 160.988 579.043 161.544 580.764 161.5C582.502 161.467 584.121 161.021 585.623 160.163C587.151 159.368 588.561 158.294 589.854 156.942C591.158 155.575 592.293 154.175 593.261 152.742ZM616.028 172.616L621.893 176.487L621.063 177.744L615.199 173.872L609.1 183.111L607.843 182.282L613.942 173.043L597.512 162.197L597.973 161.499L629.954 148.228L631.467 149.227L616.028 172.616ZM600.296 162.231L614.772 171.786L629.212 149.91L625.137 151.831L600.296 162.231Z" fill="white"/>
<path opacity="0.45" d="M678.786 130.424H685.813V131.93H678.786V143H677.28V131.93H657.593V131.093L676.974 102.399H678.786V130.424ZM659.936 130.424H677.28V104.212L674.938 108.06L659.936 130.424ZM718.941 126.436C718.941 128.425 718.727 130.424 718.299 132.432C717.872 134.439 717.184 136.28 716.236 137.953C715.288 139.57 714.024 140.909 712.444 141.968C710.863 143.028 708.902 143.558 706.56 143.558C705.017 143.558 703.632 143.325 702.405 142.861C701.178 142.377 700.118 141.708 699.226 140.853C697.348 139.087 696.019 136.902 695.238 134.3C694.476 131.697 694.095 129.076 694.095 126.436V118.963C694.095 116.992 694.318 114.966 694.764 112.884C695.21 110.783 695.926 108.915 696.911 107.279C697.897 105.643 699.17 104.323 700.732 103.319C702.293 102.315 704.217 101.814 706.504 101.814C708.066 101.814 709.478 102.074 710.743 102.594C712.007 103.096 713.076 103.756 713.949 104.574C715.715 106.229 716.98 108.385 717.742 111.044C718.504 113.702 718.904 116.342 718.941 118.963V126.436ZM696.27 132.292L716.487 111.908C716.152 110.737 715.706 109.631 715.148 108.59C714.591 107.549 713.912 106.638 713.113 105.857C712.295 105.076 711.337 104.463 710.241 104.016C709.162 103.552 707.917 103.319 706.504 103.319C704.403 103.319 702.693 103.766 701.373 104.658C700.072 105.55 698.947 106.768 697.999 108.311C697.162 109.668 696.549 111.341 696.159 113.33C695.787 115.319 695.601 117.197 695.601 118.963V126.38C695.601 127.347 695.647 128.332 695.74 129.336C695.852 130.322 696.028 131.307 696.27 132.292ZM717.435 126.38V118.963C717.416 118.071 717.361 117.169 717.268 116.258C717.193 115.329 717.063 114.408 716.877 113.497L696.688 133.854C697.042 134.969 697.497 136.029 698.055 137.033C698.612 138.018 699.291 138.882 700.09 139.626C700.89 140.369 701.819 140.964 702.879 141.411C703.957 141.838 705.184 142.052 706.56 142.052C708.66 142.052 710.417 141.559 711.83 140.574C713.261 139.589 714.368 138.325 715.148 136.782C715.985 135.276 716.571 133.603 716.905 131.762C717.24 129.903 717.416 128.109 717.435 126.38ZM747.384 130.424H754.411V131.93H747.384V143H745.878V131.93H726.191V131.093L745.571 102.399H747.384V130.424ZM728.533 130.424H745.878V104.212L743.536 108.06L728.533 130.424Z" fill="white"/>
<path opacity="0.45" d="M356.544 78.9796L363.211 76.7609L363.687 78.1897L357.019 80.4083L360.514 90.9125L359.085 91.3879L355.59 80.8838L336.91 87.0994L336.646 86.3057L345.976 52.9606L347.695 52.3884L356.544 78.9796ZM338.657 84.9311L355.115 79.455L346.839 54.5836L345.831 58.9745L338.657 84.9311ZM393.385 62.5181C394.013 64.4055 394.442 66.3692 394.67 68.4092C394.898 70.4492 394.826 72.4127 394.455 74.2996C394.066 76.1335 393.289 77.8027 392.124 79.307C390.96 80.8113 389.266 81.9333 387.043 82.6728C385.579 83.16 384.192 83.3768 382.881 83.3232C381.564 83.2519 380.347 82.9515 379.231 82.4218C376.891 81.3389 374.941 79.6859 373.378 77.4629C371.833 75.2341 370.644 72.8673 369.811 70.3625L367.451 63.2715C366.829 61.4017 366.401 59.4086 366.167 57.2922C365.927 55.1581 366.016 53.1594 366.434 51.296C366.853 49.4327 367.644 47.7782 368.809 46.3327C369.974 44.8872 371.641 43.8034 373.811 43.0815C375.292 42.5884 376.715 42.3893 378.079 42.4841C379.437 42.5612 380.66 42.8499 381.747 43.3502C383.945 44.3625 385.825 46.0096 387.388 48.2913C388.95 50.5731 390.163 52.9517 391.026 55.4271L393.385 62.5181ZM373.723 75.2321L386.47 49.5077C385.783 48.5021 385.01 47.5934 384.152 46.7817C383.294 45.97 382.363 45.3199 381.358 44.8314C380.335 44.3488 379.233 44.069 378.052 43.992C376.882 43.8914 375.627 44.0642 374.286 44.5103C372.293 45.1735 370.811 46.1368 369.84 47.4002C368.887 48.6578 368.205 50.1682 367.792 51.9316C367.427 53.4834 367.373 55.2647 367.631 57.2753C367.906 59.2801 368.322 61.1204 368.88 62.7961L371.222 69.8342C371.527 70.7514 371.882 71.6716 372.287 72.5948C372.704 73.4944 373.183 74.3736 373.723 75.2321ZM391.939 62.9406L389.597 55.9025C389.298 55.0617 388.96 54.2238 388.584 53.3888C388.22 52.5303 387.806 51.6983 387.342 50.8926L374.613 76.5818C375.3 77.5286 376.067 78.3903 376.913 79.1667C377.753 79.9255 378.67 80.5315 379.663 80.9847C380.657 81.4379 381.727 81.7088 382.873 81.7976C384.031 81.8629 385.263 81.6784 386.568 81.244C388.561 80.5808 390.073 79.5587 391.102 78.1778C392.149 76.7909 392.8 75.2422 393.053 73.5317C393.372 71.8388 393.399 70.0663 393.135 68.2144C392.866 66.3448 392.467 64.5869 391.939 62.9406ZM421.632 57.3215L428.3 55.1029L428.775 56.5317L422.108 58.7503L425.603 69.2545L424.174 69.7299L420.679 59.2257L401.999 65.4414L401.735 64.6476L411.065 31.3026L412.784 30.7303L421.632 57.3215ZM403.746 63.2731L420.204 57.7969L411.928 32.9256L410.92 37.3164L403.746 63.2731Z" fill="white"/>
<path opacity="0.45" d="M454.297 147.21L460.716 144.349L461.329 145.725L454.91 148.585L459.417 158.697L458.042 159.31L453.535 149.199L435.553 157.213L435.212 156.449L441.233 122.351L442.888 121.613L454.297 147.21ZM437.079 154.884L452.922 147.823L442.251 123.881L441.678 128.35L437.079 154.884ZM489.35 127.221C490.16 129.038 490.779 130.95 491.205 132.958C491.632 134.966 491.753 136.927 491.568 138.841C491.361 140.704 490.751 142.442 489.739 144.053C488.727 145.664 487.151 146.946 485.012 147.9C483.603 148.528 482.243 148.879 480.933 148.954C479.616 149.013 478.375 148.833 477.212 148.415C474.778 147.566 472.675 146.112 470.902 144.053C469.147 141.986 467.731 139.747 466.657 137.336L463.614 130.51C462.812 128.71 462.191 126.768 461.751 124.685C461.303 122.584 461.196 120.587 461.43 118.691C461.664 116.796 462.29 115.072 463.308 113.519C464.325 111.967 465.878 110.725 467.967 109.794C469.393 109.158 470.79 108.821 472.156 108.782C473.515 108.726 474.76 108.893 475.891 109.285C478.178 110.077 480.21 111.532 481.989 113.65C483.767 115.768 485.207 118.016 486.308 120.395L489.35 127.221ZM471.027 141.799L481.195 114.95C480.412 114.017 479.554 113.188 478.621 112.464C477.688 111.74 476.697 111.184 475.649 110.797C474.584 110.417 473.46 110.246 472.277 110.285C471.103 110.299 469.87 110.594 468.58 111.169C466.661 112.025 465.281 113.128 464.438 114.481C463.613 115.826 463.082 117.396 462.844 119.191C462.632 120.771 462.753 122.549 463.206 124.525C463.676 126.493 464.271 128.284 464.99 129.897L468.009 136.672C468.403 137.555 468.847 138.436 469.34 139.315C469.843 140.169 470.406 140.997 471.027 141.799ZM487.952 127.783L484.933 121.008C484.552 120.201 484.134 119.4 483.679 118.606C483.232 117.787 482.739 116.999 482.198 116.243L472.045 143.055C472.822 143.93 473.669 144.712 474.587 145.402C475.498 146.075 476.469 146.588 477.502 146.942C478.535 147.296 479.626 147.461 480.776 147.437C481.935 147.389 483.142 147.084 484.399 146.524C486.318 145.669 487.722 144.504 488.611 143.029C489.517 141.546 490.013 139.941 490.098 138.214C490.249 136.498 490.103 134.732 489.659 132.914C489.208 131.08 488.639 129.37 487.952 127.783ZM516.953 119.284L523.371 116.423L523.984 117.799L517.566 120.659L522.073 130.771L520.697 131.384L516.191 121.272L498.209 129.287L497.868 128.523L503.889 94.4247L505.544 93.6868L516.953 119.284ZM499.735 126.958L515.578 119.897L504.907 95.9553L504.334 100.424L499.735 126.958Z" fill="white"/>
<path opacity="0.45" d="M366.297 134.21L372.716 131.349L373.329 132.725L366.91 135.585L371.417 145.697L370.042 146.31L365.535 136.199L347.553 144.213L347.212 143.449L353.233 109.351L354.888 108.613L366.297 134.21ZM349.079 141.884L364.922 134.823L354.251 110.881L353.678 115.35L349.079 141.884ZM401.35 114.221C402.16 116.038 402.779 117.95 403.205 119.958C403.632 121.966 403.753 123.927 403.568 125.841C403.361 127.704 402.751 129.442 401.739 131.053C400.727 132.664 399.151 133.946 397.012 134.9C395.603 135.528 394.243 135.879 392.933 135.954C391.616 136.013 390.375 135.833 389.212 135.415C386.778 134.566 384.675 133.112 382.902 131.053C381.147 128.986 379.731 126.747 378.657 124.336L375.614 117.51C374.812 115.71 374.191 113.768 373.751 111.685C373.303 109.584 373.196 107.587 373.43 105.691C373.664 103.796 374.29 102.072 375.308 100.519C376.325 98.9667 377.878 97.7249 379.967 96.7941C381.393 96.1583 382.79 95.8209 384.156 95.7817C385.515 95.7255 386.76 95.8932 387.891 96.2846C390.178 97.0768 392.21 98.5319 393.989 100.65C395.767 102.768 397.207 105.016 398.308 107.395L401.35 114.221ZM383.027 128.799L393.195 101.95C392.412 101.017 391.554 100.188 390.621 99.4641C389.688 98.7403 388.697 98.1845 387.649 97.7967C386.584 97.4166 385.46 97.246 384.277 97.285C383.103 97.2994 381.87 97.5943 380.58 98.1694C378.661 99.0246 377.281 100.128 376.438 101.481C375.613 102.826 375.082 104.396 374.844 106.191C374.632 107.771 374.753 109.549 375.206 111.525C375.676 113.493 376.271 115.284 376.99 116.897L380.009 123.672C380.403 124.555 380.847 125.436 381.34 126.315C381.843 127.169 382.406 127.997 383.027 128.799ZM399.952 114.783L396.933 108.008C396.552 107.201 396.134 106.4 395.679 105.606C395.232 104.787 394.739 103.999 394.198 103.243L384.045 130.055C384.822 130.93 385.669 131.712 386.587 132.402C387.498 133.075 388.469 133.588 389.502 133.942C390.535 134.296 391.626 134.461 392.776 134.437C393.935 134.389 395.142 134.084 396.399 133.524C398.318 132.669 399.722 131.504 400.611 130.029C401.517 128.546 402.013 126.941 402.098 125.214C402.249 123.498 402.103 121.732 401.659 119.914C401.208 118.08 400.639 116.37 399.952 114.783ZM428.953 106.284L435.371 103.423L435.984 104.799L429.566 107.659L434.073 117.771L432.697 118.384L428.191 108.272L410.209 116.287L409.868 115.523L415.889 81.4247L417.544 80.6868L428.953 106.284ZM411.735 113.958L427.578 106.897L416.907 82.9553L416.334 87.4238L411.735 113.958Z" fill="white"/>
<path opacity="0.45" d="M181.297 134.21L187.716 131.349L188.329 132.725L181.91 135.585L186.417 145.697L185.042 146.31L180.535 136.199L162.553 144.213L162.212 143.449L168.233 109.351L169.888 108.613L181.297 134.21ZM164.079 141.884L179.922 134.823L169.251 110.881L168.678 115.35L164.079 141.884ZM216.35 114.221C217.16 116.038 217.779 117.95 218.205 119.958C218.632 121.966 218.753 123.927 218.568 125.841C218.361 127.704 217.751 129.442 216.739 131.053C215.727 132.664 214.151 133.946 212.012 134.9C210.603 135.528 209.243 135.879 207.933 135.954C206.616 136.013 205.375 135.833 204.212 135.415C201.778 134.566 199.675 133.112 197.902 131.053C196.147 128.986 194.731 126.747 193.657 124.336L190.614 117.51C189.812 115.71 189.191 113.768 188.751 111.685C188.303 109.584 188.196 107.587 188.43 105.691C188.664 103.796 189.29 102.072 190.308 100.519C191.325 98.9667 192.878 97.7249 194.967 96.7941C196.393 96.1583 197.79 95.8209 199.156 95.7817C200.515 95.7255 201.76 95.8932 202.891 96.2846C205.178 97.0768 207.21 98.5319 208.989 100.65C210.767 102.768 212.207 105.016 213.308 107.395L216.35 114.221ZM198.027 128.799L208.195 101.95C207.412 101.017 206.554 100.188 205.621 99.4641C204.688 98.7403 203.697 98.1845 202.649 97.7967C201.584 97.4166 200.46 97.246 199.277 97.285C198.103 97.2994 196.87 97.5943 195.58 98.1694C193.661 99.0246 192.281 100.128 191.438 101.481C190.613 102.826 190.082 104.396 189.844 106.191C189.632 107.771 189.753 109.549 190.206 111.525C190.676 113.493 191.271 115.284 191.99 116.897L195.009 123.672C195.403 124.555 195.847 125.436 196.34 126.315C196.843 127.169 197.406 127.997 198.027 128.799ZM214.952 114.783L211.933 108.008C211.552 107.201 211.134 106.4 210.679 105.606C210.232 104.787 209.739 103.999 209.198 103.243L199.045 130.055C199.822 130.93 200.669 131.712 201.587 132.402C202.498 133.075 203.469 133.588 204.502 133.942C205.535 134.296 206.626 134.461 207.776 134.437C208.935 134.389 210.142 134.084 211.399 133.524C213.318 132.669 214.722 131.504 215.611 130.029C216.517 128.546 217.013 126.941 217.098 125.214C217.249 123.498 217.103 121.732 216.659 119.914C216.208 118.08 215.639 116.37 214.952 114.783ZM243.953 106.284L250.371 103.423L250.984 104.799L244.566 107.659L249.073 117.771L247.697 118.384L243.191 108.272L225.209 116.287L224.868 115.523L230.889 81.4247L232.544 80.6868L243.953 106.284ZM226.735 113.958L242.578 106.897L231.907 82.9553L231.334 87.4238L226.735 113.958Z" fill="white"/>
<path opacity="0.45" d="M269.563 74.8513L274.439 79.9109L273.355 80.9558L268.478 75.8962L260.507 83.5786L259.462 82.4944L267.433 74.812L253.771 60.6371L254.374 60.0566L288.483 54.0983L289.741 55.4033L269.563 74.8513ZM256.481 61.2787L268.518 73.7671L287.391 55.5769L282.994 56.5609L256.481 61.2787ZM300.299 100.996C298.867 102.376 297.28 103.609 295.538 104.695C293.795 105.78 291.993 106.562 290.13 107.041C288.308 107.48 286.467 107.499 284.607 107.097C282.748 106.694 281.005 105.65 279.38 103.963C278.309 102.852 277.515 101.694 276.998 100.488C276.495 99.2689 276.241 98.0415 276.238 96.8056C276.206 94.2281 276.857 91.7552 278.189 89.387C279.534 87.032 281.157 84.9386 283.057 83.1067L288.438 77.9206C289.857 76.5531 291.471 75.3076 293.28 74.1839C295.102 73.0474 296.944 72.2662 298.805 71.8403C300.667 71.4145 302.501 71.4154 304.307 71.8431C306.114 72.2708 307.811 73.3079 309.397 74.9542C310.481 76.0786 311.274 77.2765 311.777 78.5479C312.292 79.8064 312.559 81.034 312.576 82.2308C312.611 84.6505 311.935 87.0572 310.55 89.4508C309.165 91.8444 307.542 93.9641 305.68 95.8099L300.299 100.996ZM280.35 88.7365L309.057 89.1472C309.668 88.0935 310.155 87.0047 310.517 85.8807C310.88 84.7567 311.065 83.636 311.072 82.5186C311.067 81.3878 310.844 80.2728 310.404 79.1734C309.991 78.0745 309.294 77.0165 308.313 75.9992C306.855 74.4867 305.347 73.5649 303.789 73.2338C302.243 72.916 300.586 72.9512 298.817 73.3394C297.259 73.6788 295.629 74.3981 293.926 75.4974C292.236 76.6101 290.755 77.7792 289.483 79.0048L284.143 84.1522C283.447 84.8231 282.769 85.5403 282.111 86.3038C281.479 87.0679 280.892 87.8788 280.35 88.7365ZM299.295 99.8731L304.635 94.7257C305.265 94.0931 305.875 93.4272 306.467 92.7282C307.084 92.0296 307.657 91.2973 308.183 90.5313L279.516 90.1214C278.958 91.1497 278.512 92.213 278.176 93.3112C277.853 94.3965 277.702 95.485 277.721 96.5766C277.74 97.6682 277.957 98.7502 278.371 99.8228C278.812 100.896 279.509 101.928 280.464 102.918C281.922 104.431 283.495 105.354 285.185 105.687C286.888 106.034 288.566 105.953 290.219 105.445C291.883 105.002 293.494 104.263 295.052 103.226C296.623 102.177 298.037 101.06 299.295 99.8731ZM317.166 124.243L322.043 129.302L320.959 130.347L316.082 125.288L308.111 132.97L307.066 131.886L315.037 124.203L301.375 110.028L301.978 109.448L336.087 103.49L337.345 104.795L317.166 124.243ZM304.085 110.67L316.121 123.158L334.995 104.968L330.598 105.952L304.085 110.67Z" fill="white"/>
<path opacity="0.45" d="M112.565 137.18L117.895 132.601L118.876 133.743L113.546 138.322L120.76 146.719L119.618 147.7L112.404 139.303L97.4708 152.132L96.9256 151.498L92.9274 117.104L94.3022 115.923L112.565 137.18ZM98.2662 149.464L111.422 138.161L94.3412 118.279L95.0722 122.724L98.2662 149.464ZM140.424 107.988C141.72 109.497 142.86 111.152 143.844 112.954C144.829 114.755 145.506 116.599 145.877 118.486C146.212 120.331 146.125 122.17 145.617 124.003C145.109 125.837 143.967 127.517 142.19 129.043C141.02 130.049 139.818 130.775 138.584 131.222C137.339 131.655 136.099 131.838 134.865 131.771C132.29 131.655 129.858 130.864 127.57 129.399C125.296 127.921 123.298 126.181 121.578 124.179L116.708 118.51C115.424 117.016 114.273 115.333 113.254 113.463C112.224 111.579 111.549 109.696 111.231 107.813C110.912 105.93 111.018 104.099 111.548 102.32C112.078 100.541 113.211 98.906 114.945 97.416C116.13 96.3983 117.371 95.6751 118.669 95.2461C119.955 94.8031 121.196 94.6071 122.392 94.6582C124.809 94.7623 127.173 95.5742 129.484 97.094C131.794 98.6137 133.818 100.356 135.554 102.32L140.424 107.988ZM127.044 127.203L129.095 98.5674C128.078 97.8971 127.019 97.3488 125.918 96.9226C124.816 96.4964 123.708 96.2476 122.593 96.1763C121.464 96.1171 120.338 96.2756 119.215 96.6519C118.094 97.002 116.998 97.6374 115.926 98.5581C114.333 99.927 113.326 101.38 112.907 102.917C112.501 104.442 112.442 106.098 112.728 107.887C112.978 109.461 113.603 111.13 114.603 112.893C115.617 114.644 116.7 116.19 117.85 117.529L122.684 123.155C123.314 123.889 123.991 124.606 124.716 125.307C125.443 125.981 126.219 126.614 127.044 127.203ZM139.246 108.927L134.412 103.301C133.816 102.636 133.187 101.989 132.522 101.358C131.86 100.702 131.162 100.088 130.427 99.5186L128.379 128.115C129.374 128.731 130.41 129.238 131.487 129.636C132.552 130.02 133.63 130.234 134.721 130.277C135.812 130.32 136.904 130.165 137.999 129.813C139.095 129.435 140.165 128.798 141.209 127.901C142.802 126.532 143.814 125.014 144.243 123.346C144.687 121.665 144.702 119.986 144.289 118.307C143.942 116.619 143.296 114.969 142.351 113.355C141.393 111.726 140.358 110.251 139.246 108.927ZM164.597 92.4779L169.927 87.8987L170.908 89.0409L165.578 93.6201L172.792 102.017L171.65 102.998L164.436 94.6013L149.503 107.43L148.958 106.796L144.96 72.4019L146.335 71.2207L164.597 92.4779ZM150.299 104.762L163.455 93.4592L146.374 73.5768L147.105 78.0221L150.299 104.762Z" fill="white"/>
<path opacity="0.45" d="M195.812 60.2292L202.147 57.187L202.799 58.5443L196.464 61.5866L201.257 71.5658L199.9 72.2177L195.107 62.2385L177.361 70.7618L176.999 70.0077L182.046 35.7519L183.68 34.9672L195.812 60.2292ZM178.82 68.3903L194.455 60.8812L183.107 37.253L182.661 41.7359L178.82 68.3903ZM230.283 39.2503C231.144 41.0433 231.816 42.9373 232.3 44.9323C232.784 46.9272 232.961 48.884 232.83 50.8026C232.676 52.671 232.116 54.4248 231.15 56.0641C230.185 57.7034 228.646 59.0301 226.535 60.0442C225.144 60.7122 223.795 61.1024 222.487 61.2146C221.172 61.3101 219.927 61.1656 218.753 60.7811C216.295 60.002 214.152 58.6084 212.321 56.6004C210.507 54.5843 209.029 52.3865 207.886 50.0069L204.651 43.2704C203.797 41.4941 203.121 39.5709 202.622 37.5009C202.115 35.4141 201.951 33.4201 202.131 31.5189C202.311 29.6176 202.887 27.8765 203.86 26.2956C204.833 24.7146 206.35 23.4291 208.412 22.4392C209.819 21.7631 211.206 21.3861 212.57 21.308C213.927 21.2131 215.176 21.3453 216.318 21.7043C218.627 22.4312 220.7 23.8277 222.538 25.8941C224.376 27.9604 225.879 30.167 227.047 32.5137L230.283 39.2503ZM212.382 54.3439L221.781 27.2166C220.972 26.3057 220.091 25.5018 219.138 24.8048C218.184 24.1079 217.178 23.5805 216.119 23.2228C215.044 22.8731 213.915 22.7346 212.734 22.8072C211.56 22.8551 210.337 23.1849 209.064 23.7966C207.17 24.706 205.821 25.8487 205.018 27.2245C204.231 28.5922 203.745 30.1768 203.558 31.9781C203.391 33.5636 203.563 35.3374 204.072 37.2994C204.598 39.2535 205.243 41.0265 206.008 42.6184L209.219 49.3047C209.638 50.1761 210.106 51.0441 210.625 51.9088C211.152 52.7487 211.737 53.5604 212.382 54.3439ZM228.901 39.8519L225.69 33.1656C225.287 32.3693 224.846 31.5807 224.368 30.7998C223.898 29.9941 223.383 29.221 222.821 28.4803L213.435 55.5704C214.236 56.423 215.106 57.181 216.043 57.8444C216.972 58.4911 217.958 58.9766 219.001 59.3008C220.043 59.6251 221.139 59.7589 222.287 59.7023C223.444 59.6209 224.643 59.2824 225.883 58.6869C227.776 57.7774 229.147 56.5727 229.994 55.0729C230.857 53.565 231.307 51.9466 231.343 50.2177C231.445 48.4982 231.249 46.7365 230.753 44.9326C230.25 43.112 229.633 41.4184 228.901 39.8519ZM257.648 30.5308L263.982 27.4885L264.634 28.8458L258.3 31.8881L263.093 41.8673L261.735 42.5192L256.943 32.54L239.196 41.0633L238.834 40.3092L243.881 6.0534L245.515 5.26869L257.648 30.5308ZM240.656 38.6918L256.291 31.1827L244.942 7.55447L244.497 12.0374L240.656 38.6918Z" fill="white"/>
</svg>
