<svg width="180" height="32" viewBox="0 0 180 32" fill="none" xmlns="http://www.w3.org/2000/svg">
<g clip-path="url(#clip0_0_1000)">
<path d="M163.379 0.074707L147.253 31.6427H162.29L162.288 31.6411H162.29L180 0.074707H163.379Z" fill="black"/>
<path d="M120.131 0.0761719L120.291 19.0649L127.464 31.6426H138.967V23.1267L127.098 0.0761719H120.131Z" fill="black"/>
<path d="M156.519 8.40949L152.228 0.074707H135.256L146.445 19.702H150.677L156.519 8.40949Z" fill="black"/>
<path d="M98.8057 23.1267V31.6426H110.302L117.39 19.2127L117.832 0.0761719H110.674L98.8057 23.1267Z" fill="black"/>
<path d="M76.1981 0.0776367H64.3299L52.4697 23.1266V31.6425H63.9664L68.2637 24.1019L76.1981 8.79366V0.0776367Z" fill="black"/>
<path d="M88.5838 0L83.334 0.0778358L71.4658 23.1268L77.1856 31.6427H93.5749L87.8202 23.1204L87.7075 20.5455L94.8512 15.8594L95.1942 5.19753L88.5838 0Z" fill="black"/>
<path d="M27.9971 10.1457V0.0366211H16.1322L0 31.6427H15.767V31.6046L27.9971 10.1457Z" fill="black"/>
<path d="M49.3997 10.1457L52.47 0.0366211H40.3859L32.6374 6.50017L22.9346 23.6749L28.2575 31.6062H44.6468L37.5253 21.0523L38.8905 18.2597L49.3997 10.1457Z" fill="black"/>
</g>
<defs>
<clipPath id="clip0_0_1000">
<rect width="180" height="31.6427" fill="white"/>
</clipPath>
</defs>
</svg>
