<svg width="180" height="36" viewBox="0 0 180 36" fill="none" xmlns="http://www.w3.org/2000/svg">
<g clip-path="url(#clip0_14027_412)">
<path d="M163.471 1.84082L147.435 33.2334H162.388L162.387 33.2319H162.388L180 1.84082H163.471Z" fill="white"/>
<path d="M120.463 1.84277L120.623 20.726L127.755 33.2338H139.194V24.7652L127.392 1.84277H120.463Z" fill="white"/>
<path d="M156.65 10.1293L152.383 1.84082H135.505L146.631 21.3591H150.84L156.65 10.1293Z" fill="white"/>
<path d="M99.2568 24.7652V33.2338H110.69L117.738 20.873L118.177 1.84277H111.059L99.2568 24.7652Z" fill="white"/>
<path d="M76.7752 1.84375H64.973L53.1787 24.7646V33.2332H64.6115L68.885 25.7346L76.7752 10.5114V1.84375Z" fill="white"/>
<path d="M89.0917 1.7666L83.871 1.844L72.0688 24.7649L77.7568 33.2335H94.0551L88.3324 24.7586L88.2203 22.1979L95.3244 17.5379L95.6654 6.93525L89.0917 1.7666Z" fill="white"/>
<path d="M28.8416 11.8557V1.80273H17.0425L1 33.2333H16.6794V33.1953L28.8416 11.8557Z" fill="white"/>
<path d="M50.1253 11.8557L53.1784 1.80273H41.1615L33.456 8.23038L23.8071 25.3097L29.1004 33.1969H45.3987L38.3168 22.7017L39.6744 19.9246L50.1253 11.8557Z" fill="white"/>
</g>
<defs>
<clipPath id="clip0_14027_412">
<rect width="179" height="31.4669" fill="white" transform="translate(1 1.7666)"/>
</clipPath>
</defs>
</svg>
